<svg xmlns="http://www.w3.org/2000/svg" id="Capa_1" data-name="Capa 1" viewBox="0 0 1049.74 797.3"><defs><style>.cls-1{fill:#706f6f}.cls-2{fill:#575756}.cls-3{fill:none;stroke:#1d1d1b;stroke-miterlimit:10}</style></defs><title>CUBIERTA</title><circle cx="525.46" cy="608.15" r="2.55" class="cls-1"/><circle cx="760.83" cy="588" r="2.55" class="cls-1" transform="translate(-128.02 907.81) rotate(-60)"/><circle cx="946.83" cy="368" r="2.55" class="cls-1" transform="translate(155.51 958.89) rotate(-60)"/><circle cx="289.41" cy="542.84" r="2.55" class="cls-1"/><circle cx="101.41" cy="322.84" r="2.55" class="cls-1"/><circle cx="578.41" cy="46.84" r="2.83" class="cls-1"/><circle cx="525.41" cy="64.84" r="2.83" class="cls-1"/><circle cx="471.99" cy="46.84" r="2.83" class="cls-1"/><circle cx="434.2" cy="47.93" r="2.83" class="cls-1" transform="translate(14.06 119.66) rotate(-21.81)"/><circle cx="615.41" cy="2.84" r="2.83" class="cls-1"/><circle cx="525.46" cy="679.46" r="7.09" class="cls-2"/><circle cx="788.86" cy="609.8" r="7.09" class="cls-2"/><circle cx="970.05" cy="437.54" r="7.09" class="cls-2"/><circle cx="970.05" cy="493.98" r="7.09" class="cls-2"/><circle cx="788.86" cy="666.06" r="7.09" class="cls-2"/><circle cx="525.15" cy="735.76" r="7.09" class="cls-2"/><circle cx="119.08" cy="735.92" r="7.09" class="cls-2"/><path d="M527.5,678.3a481.69,481.69,0,0,1-256.37-73.83,477.23,477.23,0,0,1-75.8-59.36c-50.56-48.58-90.08-108.23-117.39-172.81C69.34,352,61.85,331,50,312.38s-29-35-50.26-40.75L0,841.89H1048.32V273.64h0" class="cls-3" transform="translate(0.79 -45.09)"/><path d="M1048.82,271.62h0l-0.37.1c-21.13,5.86-38.08,22.16-49.89,40.65s-19.37,39.58-28,59.91C943.28,436.87,903.76,496.52,853.2,545.1a477.23,477.23,0,0,1-75.8,59.36c-76.21,48.12-168.91,74-256.37,73.83" class="cls-3" transform="translate(0.79 -45.09)"/><circle cx="930.8" cy="679.52" r="7.09" class="cls-2"/><circle cx="930.49" cy="735.83" r="7.09" class="cls-2"/><circle cx="262.11" cy="609.46" r="7.09" class="cls-2"/><circle cx="262.11" cy="665.72" r="7.09" class="cls-2"/><circle cx="79.85" cy="437.87" r="7.09" class="cls-2"/><circle cx="79.85" cy="494.31" r="7.09" class="cls-2"/><polyline points="1049.11 229.03 1049.11 226.67 1048.82 226.67" class="cls-3"/></svg>