<?xml version="1.0" encoding="utf-8"?>
<!-- Generator: Adobe Illustrator 19.2.0, SVG Export Plug-In . SVG Version: 6.00 Build 0)  -->
<svg version="1.1" id="Capa_1" xmlns="http://www.w3.org/2000/svg" xmlns:xlink="http://www.w3.org/1999/xlink" x="0px" y="0px"
	 viewBox="0 0 1048.8 841.9" style="enable-background:new 0 0 1048.8 841.9;" xml:space="preserve">
<style type="text/css">
	.st0{fill:#706F6F;}
	.st1{fill:#575756;}
	.st2{fill:none;stroke:#1D1D1B;stroke-miterlimit:10;}
</style>
<circle class="st0" cx="524.7" cy="653.2" r="2.6"/>
<ellipse transform="matrix(0.5 -0.866 0.866 0.5 -128.8063 952.901)" class="st0" cx="760.8" cy="588" rx="2.6" ry="2.6"/>
<ellipse transform="matrix(0.5 -0.866 0.866 0.5 154.7193 1003.9817)" class="st0" cx="946.8" cy="368" rx="2.6" ry="2.6"/>
<circle class="st0" cx="288.6" cy="587.9" r="2.6"/>
<circle class="st0" cx="100.6" cy="367.9" r="2.6"/>
<circle class="st0" cx="577.6" cy="91.9" r="2.8"/>
<circle class="st0" cx="524.6" cy="109.9" r="2.8"/>
<circle class="st0" cx="471.2" cy="91.9" r="2.8"/>
<ellipse transform="matrix(0.9284 -0.3715 0.3715 0.9284 13.2737 164.7508)" class="st0" cx="434.2" cy="47.9" rx="2.8" ry="2.8"/>
<circle class="st0" cx="614.6" cy="47.9" r="2.8"/>
<circle class="st1" cx="524.7" cy="724.6" r="7.1"/>
<circle class="st1" cx="788.1" cy="654.9" r="7.1"/>
<circle class="st1" cx="969.3" cy="482.6" r="7.1"/>
<circle class="st1" cx="969.3" cy="539.1" r="7.1"/>
<circle class="st1" cx="788.1" cy="711.2" r="7.1"/>
<circle class="st1" cx="524.4" cy="780.9" r="7.1"/>
<circle class="st1" cx="118.3" cy="765" r="7.1"/>
<circle class="st1" cx="930" cy="708.6" r="7.1"/>
<circle class="st1" cx="929.7" cy="764.9" r="7.1"/>
<circle class="st1" cx="261.3" cy="654.5" r="7.1"/>
<circle class="st1" cx="261.3" cy="710.8" r="7.1"/>
<circle class="st1" cx="79.1" cy="483" r="7.1"/>
<circle class="st1" cx="79.1" cy="539.4" r="7.1"/>
<polyline class="st2" points="1048.3,274.1 1048.3,271.8 1048,271.8 "/>
<rect class="st2" width="1048.3" height="841.9"/>
</svg>
