<?xml version="1.0" encoding="utf-8"?>
<!-- Generator: Adobe Illustrator 19.2.0, SVG Export Plug-In . SVG Version: 6.00 Build 0)  -->
<svg version="1.1" id="Capa_1" xmlns="http://www.w3.org/2000/svg" xmlns:xlink="http://www.w3.org/1999/xlink" x="0px" y="0px"
	 viewBox="0 0 1049.7 797.3" style="enable-background:new 0 0 1049.7 797.3;" xml:space="preserve">
<style type="text/css">
	.st0{fill:#575756;}
	.st1{fill:none;stroke:#1D1D1B;stroke-miterlimit:10;}
</style>
<title>CUBIERTA</title>
<circle class="st0" cx="525.5" cy="679.5" r="7.1"/>
<circle class="st0" cx="788.9" cy="609.8" r="7.1"/>
<circle class="st0" cx="970" cy="437.5" r="7.1"/>
<circle class="st0" cx="970" cy="494" r="7.1"/>
<circle class="st0" cx="788.9" cy="666.1" r="7.1"/>
<circle class="st0" cx="525.2" cy="735.8" r="7.1"/>
<circle class="st0" cx="119.1" cy="735.9" r="7.1"/>
<path class="st1" d="M528.3,633.2c-90.7,0-179.6-25.6-256.4-73.8c-27.2-17.2-52.6-37.1-75.8-59.4C145.6,451.4,106,391.8,78.7,327.2
	c-8.6-20.3-16.1-41.3-27.9-59.9s-29-35-50.3-40.7l0.3,570.3h1048.3V228.6l0,0"/>
<path class="st1" d="M1049.6,226.5L1049.6,226.5l-0.4,0.1c-21.1,5.9-38.1,22.2-49.9,40.6s-19.4,39.6-28,59.9
	C944.1,391.8,904.5,451.4,854,500c-23.2,22.3-48.6,42.2-75.8,59.4c-76.2,48.1-168.9,74-256.4,73.8"/>
<circle class="st0" cx="930.8" cy="679.5" r="7.1"/>
<circle class="st0" cx="930.5" cy="735.8" r="7.1"/>
<circle class="st0" cx="262.1" cy="609.5" r="7.1"/>
<circle class="st0" cx="262.1" cy="665.7" r="7.1"/>
<circle class="st0" cx="79.8" cy="437.9" r="7.1"/>
<circle class="st0" cx="79.8" cy="494.3" r="7.1"/>
<polyline class="st1" points="1049.1,229 1049.1,226.7 1048.8,226.7 "/>
</svg>
